<?xml version="1.0" encoding="UTF-8"?><svg id="b" xmlns="http://www.w3.org/2000/svg" viewBox="0 0 139.8665 124.0968"><g id="c"><path d="m84.3114,20.7686h-.087v.008c.0295-.0026.0539-.0049.087-.008Z" style="fill:#168f8c; fill-rule:evenodd;"/><path d="m84.8772,19.9568v51.8921h12.2023v-38.8902c0-2.9046-1.55-11.6793-12.2023-13.0019Z" style="fill:#0ca49d; fill-rule:evenodd;"/><path d="m20.0166,62.8186c1.5519,0,2.8202-.1967,3.8058-.5902.9842-.394,1.7549-.9034,2.3119-1.5287.5553-.625.9371-1.3317,1.146-2.1192.2084-.7863.3124-1.5854.3124-2.3961,0-.9261-.1213-1.7597-.3651-2.5016-.2423-.741-.6599-1.3654-1.2512-1.8754-.5899-.5094-1.3722-.9034-2.3454-1.1812-.9731-.2775-2.2011-.4169-3.6844-.4169h-8.2007v12.6093h8.2707ZM11.7459,29.8539v12.5051h6.1163c1.2969,0,2.4676-.0921,3.5102-.2778,1.0417-.1857,1.9287-.5091,2.658-.9731.7294-.4627,1.2861-1.099,1.6682-1.91.3818-.8105.5737-1.8292.5737-3.0566,0-1.2042-.151-2.206-.4518-3.0048-.3016-.799-.7651-1.4414-1.3904-1.9281-.6253-.4864-1.4193-.8336-2.38-1.0423-.9615-.2083-2.1035-.3124-3.4231-.3124h-6.8811Zm6.8811-8.7885c3.498,0,6.4755.3249,8.9311.9726,2.4551.6491,4.4601,1.5633,6.0126,2.7445,1.5514,1.1809,2.6805,2.6169,3.388,4.3069.7061,1.6909,1.0599,3.5782,1.0599,5.6625,0,1.1345-.1625,2.2292-.4856,3.2825-.3252,1.0543-.8354,2.0379-1.5302,2.9523-.6953.9153-1.5871,1.7544-2.6759,2.5189-1.0896.7639-2.3975,1.4244-3.9265,1.9791,3.3352.811,5.8031,2.1192,7.4015,3.9257,1.5985,1.8063,2.3987,4.1457,2.3987,7.0166,0,2.1535-.4173,4.1576-1.2518,6.0098-.8336,1.853-2.0565,3.4682-3.6666,4.8455-1.6098,1.3779-3.5966,2.4548-5.9601,3.2307-2.3621.7764-5.0618,1.1636-8.0963,1.1636H0V21.0654h18.627Z" style="fill:#0ca49d; fill-rule:evenodd;"/><path d="m74.5084,31.3475c-.3478.5562-.7118.9726-1.095,1.2507-.3819.2778-.874.4167-1.4763.4167-.5329,0-1.1064-.1681-1.7204-.5038-.6137-.3356-1.3093-.7117-2.0849-1.1287-.7761-.4167-1.6628-.7934-2.6589-1.1291-.9955-.3359-2.131-.5034-3.4061-.5034-2.2008,0-3.8401.4689-4.9172,1.4068-1.0769.9375-1.6161,2.2057-1.6161,3.8036,0,1.0193.3249,1.8643.9732,2.5353.6483.6721,1.5004,1.2512,2.5551,1.7373,1.0537.4859,2.259.9324,3.6139,1.3374,1.3553.4057,2.7391.8569,4.1525,1.3544,1.4133.4986,2.7986,1.0831,4.153,1.7541,1.3556.6718,2.5606,1.5287,3.6145,2.5707,1.0542,1.0423,1.9054,2.31,2.554,3.8036.6483,1.4935.9731,3.2944.9731,5.4014,0,2.3397-.4048,4.528-1.2157,6.565-.8116,2.0381-1.9877,3.8157-3.5278,5.3326-1.5414,1.5171-3.4407,2.709-5.6987,3.5773-2.2595.8691-4.8257,1.3031-7.6984,1.3031-1.5752,0-3.1802-.1625-4.8129-.4859-1.6336-.3246-3.2145-.7824-4.7435-1.3731-1.5296-.5902-2.9662-1.2906-4.3095-2.1008-1.3451-.8107-2.5143-1.7138-3.5104-2.7102l3.475-5.4878c.2789-.3943.6429-.7237,1.0947-.9899.4518-.2664.9439-.3994,1.478-.3994.6939,0,1.3941.2197,2.1022.6596.7063.4403,1.5057.9264,2.3978,1.4593.8918.5329,1.9168,1.0188,3.0753,1.459,1.1579.4397,2.5254.6599,4.1011.6599,2.1311,0,3.7883-.4694,4.9698-1.4068,1.1809-.938,1.7716-2.4259,1.7716-4.4637,0-1.1815-.3248-2.1416-.9726-2.8834-.6485-.7407-1.5009-1.3547-2.554-1.8414-1.0559-.4859-2.2544-.9145-3.5977-1.2847-1.3433-.3699-2.7224-.7812-4.1349-1.2336-1.4139-.4513-2.7924-1.0069-4.1358-1.6668-1.3444-.6602-2.5435-1.5284-3.596-2.605-1.0553-1.0772-1.9071-2.4203-2.5554-4.0298-.648-1.6095-.9729-3.5952-.9729-5.9573,0-1.8983.3819-3.7513,1.1469-5.5581.7651-1.8063,1.8879-3.4155,3.3707-4.828,1.4831-1.4119,3.3024-2.5416,5.4561-3.3874,2.1546-.845,4.6222-1.2677,7.4027-1.2677,1.552,0,3.0637.1219,4.5354.3654,1.4704.2427,2.867.6021,4.1877,1.0766,1.3209.4748,2.5537,1.0423,3.7009,1.7019,1.1469.6605,2.1716,1.4069,3.075,2.2405l-2.9191,5.4536Z" style="fill:#0ca49d; fill-rule:evenodd;"/><path d="m98.4175,1.2535c-.0269-.4241-.0754-.8416-.1389-1.2535,2.73,2.8168,6.6291,4.468,10.8516,4.2013,2.0194-.1282,3.9087-.684,5.5899-1.5702-1.3059,2.2777-1.9831,4.9493-1.8048,7.765.2205,3.4855,1.7127,6.586,3.9926,8.8863-1.1662-.235-2.3814-.3254-3.625-.246-4.9405.3118-9.11,3.1717-11.3181,7.2167-.8723-5.9791-5.5114-10.6271-11.3125-11.6498,4.9013-2.3947,8.1309-7.5697,7.7652-13.3498Z" style="fill:#f9ad3c; fill-rule:evenodd;"/><path d="m5.0842,103.2837c.5592,0,1.0414-.0638,1.4456-.1919.4043-.1284.7345-.3067.9907-.5358.2628-.2358.455-.5122.576-.8291.1217-.3232.182-.6769.182-1.0613,0-.7478-.2661-1.3374-.7985-1.7685-.5323-.4383-1.3306-.6571-2.3958-.6571H1.9508v5.0437h3.1334Zm-3.1334-11.382v4.9431h2.5877c.5528,0,1.031-.0604,1.4355-.182.411-.121.7477-.2894,1.0105-.5054.2699-.2157.4686-.4751.5967-.7781.1281-.3101.1922-.6472.1922-1.0109,0-.8557-.2563-1.4791-.7688-1.87-.5116-.3977-1.307-.5967-2.3853-.5967H1.9508Zm2.6685-1.5463c.8895,0,1.6546.0873,2.2946.2628.6472.1749,1.1761.4246,1.5872.7481.4175.3231.7242.7211.9198,1.1925.1953.4652.2931.9907.2931,1.5772,0,.3569-.0573.7004-.1721,1.031-.1077.3234-.2727.6267-.4952.9096-.2222.2829-.5054.5394-.8492.7682-.3368.2225-.7342.4045-1.1929.5459,1.0653.2021,1.8635.5828,2.3962,1.1421.5388.5528.8084,1.2807.8084,2.1833,0,.6134-.1145,1.1726-.3438,1.6781-.222.5054-.5522.9399-.9905,1.3042-.4314.3637-.9635.6466-1.597.8487-.6333.1959-1.3544.2931-2.1634.2931H0v-14.4848h4.6193Z" style="fill:#0ca49d; fill-rule:evenodd;"/><path d="m20.5647,99.4629l-2.2745-5.8933c-.0672-.1749-.1383-.3773-.2123-.6063-.0743-.2358-.1448-.485-.212-.7478-.1418.5457-.2866,1.0006-.4346,1.3643l-2.2748,5.8831h5.4082Zm4.0836,5.3773h-1.5159c-.1755,0-.317-.0434-.425-.131-.1077-.0879-.1885-.199-.2423-.3339l-1.3547-3.4974h-6.4996l-1.3546,3.4974c-.0403.1216-.1179.2293-.2325.3237-.1145.0944-.2562.1412-.4246.1412h-1.516l5.7918-14.4848h1.9814l5.792,14.4848Z" style="fill:#0ca49d; fill-rule:evenodd;"/><path d="m38.2898,90.3554v14.4848h-.9805c-.1551,0-.2866-.0267-.3943-.0805-.1009-.0542-.2024-.1449-.3033-.273l-8.3795-10.9171c.013.1684.0232.3337.0303.4952.0065.1619.0099.3138.0099.455v10.3204h-1.7183v-14.4848h1.0108c.0873,0,.1616.0065.2222.0201.0607.0066.1148.0239.1616.0505.0473.0201.0944.0539.1417.1009.0474.0408.0978.0947.1517.1619l8.3798,10.9071c-.0136-.1754-.0272-.3441-.0403-.5054-.0071-.1687-.0102-.3268-.0102-.4754v-10.2597h1.7184Z" style="fill:#0ca49d; fill-rule:evenodd;"/><path d="m43.9438,96.703h.7381c.2557,0,.4615-.0303.6163-.0907.1553-.0674.2965-.1785.4246-.3333l4.8214-5.4584c.1352-.1755.2764-.2968.4247-.3643.1482-.0671.3305-.1009.5462-.1009h1.6571l-5.5187,6.2368c-.135.1619-.2665.2965-.3941.4045-.1216.1009-.2528.1851-.3943.2526.182.0604.347.1514.4953.273.1482.1145.2931.2661.4345.4546l5.7617,6.8633h-1.6979c-.1282,0-.2393-.0065-.3337-.0201-.0876-.0202-.1652-.0471-.2324-.0808-.0675-.0403-.1279-.0842-.182-.1316-.0473-.0535-.0944-.1145-.1417-.1817l-4.9935-5.7515c-.1347-.1683-.2795-.2865-.4346-.354-.1551-.074-.3909-.1111-.7075-.1111h-.8895v6.6308h-1.9511v-14.4848h1.9511v6.3476Z" style="fill:#0ca49d; fill-rule:evenodd;"/><path d="m67.9603,92.6195c-.0604.1014-.1278.1785-.2021.2324-.0672.0476-.1514.0711-.2526.0711-.1145,0-.2494-.0575-.4045-.172-.155-.1145-.3501-.2395-.5862-.3742-.229-.1412-.5088-.2693-.839-.3838-.3235-.1151-.7178-.1718-1.1824-.1718-.4382,0-.8254.0604-1.1625.1817-.3302.1148-.6103.273-.8393.4754-.2222.2018-.3906.4411-.5051.7174-.1148.2696-.1721.5627-.1721.8793,0,.4045.0978.7413.2931,1.0112.2021.2627.4649.4884.7886.6769.3302.189.7007.354,1.1118.4952.4181.1349.8427.2764,1.2738.4246.438.1483.8623.3166,1.2736.5054.4179.182.7886.4145,1.1118.6976.3305.2829.5933.6305.7886,1.0412.2021.411.303.9164.303,1.5163,0,.6335-.1074,1.2296-.3231,1.7889-.2157.5528-.5324,1.0344-.9502,1.4457-.411.411-.9201.7344-1.5265.9706-.5998.2355-1.2838.3534-2.052.3534-.9436,0-1.7994-.1683-2.5676-.5051-.7682-.3436-1.4252-.8056-1.9709-1.385l.5658-.9301c.0538-.0742.1182-.1346.1922-.1819.0808-.0536.1683-.0808.2627-.0808.0876,0,.1854.0374.2931.1114.1148.0672.243.155.3841.2628.1418.108.3033.2253.4853.3534.182.1282.3872.2464.6168.3541.2356.1074.5018.1987.7983.273.2968.0671.6301.1009,1.0006.1009.4652,0,.8796-.0641,1.2439-.1922.3636-.1279.6704-.3064.9195-.5358.256-.2355.4516-.5153.5862-.8387.135-.3238.2024-.6843.2024-1.0817,0-.438-.1015-.7949-.3036-1.0713-.1953-.2834-.4544-.519-.7781-.7075-.3234-.1888-.6942-.3469-1.112-.4751-.4178-.1349-.8425-.2698-1.2736-.4045-.4312-.1417-.8558-.3033-1.2733-.4853-.4182-.1819-.7889-.4175-1.1124-.7075-.3231-.2897-.5859-.6503-.788-1.0814-.1959-.4382-.2934-.9774-.2934-1.6175,0-.5122.0975-1.0074.2934-1.4856.2021-.4788.4915-.9034.8688-1.2739.3844-.3708.853-.6673,1.4052-.8898.5592-.2219,1.1999-.3333,1.9204-.3333.809,0,1.5435.1281,2.204.3843.6672.2557,1.2535.6262,1.7589,1.1115l-.4754.9301Z" style="fill:#0ca49d; fill-rule:evenodd;"/><path d="m76.67,99.0686v5.7716h-1.961v-5.7716l-5.3067-8.7132h1.7183c.1752,0,.3133.044.4148.1313.1009.081.1885.1885.2624.3237l3.3157,5.6302c.1213.2358.2325.458.3334.6669.1015.2022.1888.4077.2628.6169.0742-.2092.1584-.4147.2528-.6169.0947-.2089.199-.4311.3135-.6669l3.3055-5.6302c.0607-.1145.1448-.2194.2528-.3138.1078-.0941.2455-.1412.4142-.1412h1.7286l-5.3071,8.7132Z" style="fill:#0ca49d; fill-rule:evenodd;"/><path d="m90.1184,99.4629l-2.2745-5.8933c-.0672-.1749-.1377-.3773-.212-.6063-.074-.2358-.1451-.485-.2123-.7478-.1415.5457-.2863,1.0006-.4346,1.3643l-2.2745,5.8831h5.4079Zm4.0839,5.3773h-1.5162c-.1755,0-.3167-.0434-.4247-.131-.1077-.0879-.1888-.199-.2426-.3339l-1.3544-3.4974h-6.4996l-1.3546,3.4974c-.0406.1216-.118.2293-.2328.3237-.1142.0944-.2557.1412-.4243.1412h-1.5163l5.7921-14.4848h1.9814l5.792,14.4848Z" style="fill:#0ca49d; fill-rule:evenodd;"/><path d="m100.1211,97.3703c.5657,0,1.0646-.0672,1.4958-.2021.4379-.1414.8019-.337,1.0916-.5862.2965-.2562.5188-.5593.667-.9099.1485-.3504.2225-.7376.2225-1.1625,0-.8623-.2829-1.5129-.8487-1.9508-.5666-.4382-1.4153-.6571-2.5475-.6571h-2.143v5.4686h2.0623Zm6.6917,7.4699h-1.7391c-.3571,0-.6199-.1381-.7883-.4142l-3.7604-5.1755c-.1142-.1618-.239-.2763-.3736-.3435-.1281-.074-.3303-.1111-.6066-.1111h-1.486v6.0443h-1.9508v-14.4848h4.0938c.9165,0,1.7082.0944,2.3755.2829.6672.1823,1.2163.4479,1.6475.7985.4379.3504.7616.775.9706,1.2739.2086.4918.3132,1.0446.3132,1.6577,0,.512-.0808.9905-.2427,1.4355-.1618.4445-.3974.8453-.7075,1.2027-.3033.3501-.6775.6503-1.1222.8995-.438.2497-.9366.4382-1.4959.5663.2495.1412.4649.347.6469.6163l4.2256,5.7515Z" style="fill:#0ca49d; fill-rule:evenodd;"/><rect x="108.7829" y="90.3554" width="1.961" height="14.4848" style="fill:#0ca49d;"/><path d="m122.1414,99.4629l-2.2745-5.8933c-.0672-.1749-.138-.3773-.212-.6063-.074-.2358-.1452-.485-.2123-.7478-.1418.5457-.2866,1.0006-.4349,1.3643l-2.2745,5.8831h5.4082Zm4.0836,5.3773h-1.5162c-.1752,0-.3167-.0434-.4244-.131-.108-.0879-.1888-.199-.2426-.3339l-1.3547-3.4974h-6.4996l-1.3546,3.4974c-.0403.1216-.118.2293-.2325.3237s-.2562.1412-.4246.1412h-1.516l5.7918-14.4848h1.9814l5.792,14.4848Z" style="fill:#0ca49d; fill-rule:evenodd;"/><polygon points="139.8665 90.3554 139.8665 104.8402 137.9055 104.8402 137.9055 98.2499 130.0918 98.2499 130.0918 104.8402 128.1308 104.8402 128.1308 90.3554 130.0918 90.3554 130.0918 96.8144 137.9055 96.8144 137.9055 90.3554 139.8665 90.3554" style="fill:#0ca49d; fill-rule:evenodd;"/><rect y="109.4493" width="1.961" height="14.4853" style="fill:#0ca49d;"/><path d="m17.4018,109.4493v14.4853h-.9807c-.1548,0-.2863-.0266-.3938-.0805-.1015-.0541-.2024-.1454-.3036-.2729l-8.3797-10.9171c.0136.1684.0238.3333.0303.4952.0071.1621.0102.3132.0102.455v10.3203h-1.7184v-14.4853h1.0109c.0875,0,.1615.0071.2222.0207.0604.0068.1145.0233.1619.0505.047.0201.0943.0538.1411.1009.0476.0405.0981.0944.152.1618l8.3797,10.9066c-.0133-.1749-.0269-.3435-.0405-.5054-.0065-.1684-.0099-.3268-.0099-.4751v-10.26h1.7183Z" style="fill:#0ca49d; fill-rule:evenodd;"/><path d="m33.6597,116.6972c0,1.0851-.1721,2.0719-.5157,2.9617-.3438.8898-.8291,1.6511-1.4558,2.2847-.6265.6332-1.3816,1.1251-2.2641,1.4757-.8761.3436-1.8464.5153-2.9111.5153h-5.408v-14.4853h5.408c1.0647,0,2.035.1755,2.9111.5261.8825.3436,1.6376.8354,2.2641,1.4757.6267.6336,1.112,1.395,1.4558,2.2845.3436.8895.5157,1.8768.5157,2.9616h0Zm-2.0118,0c0-.8895-.1213-1.6849-.3637-2.3853-.2426-.701-.5865-1.2943-1.0312-1.7793-.4448-.4853-.9839-.8558-1.6172-1.1115-.6335-.2565-1.341-.3844-2.1228-.3844h-3.4473v11.3108h3.4473c.7818,0,1.4893-.1275,2.1228-.3838.6333-.2562,1.1724-.6233,1.6172-1.1018.4447-.4853.7886-1.0783,1.0312-1.779.2424-.7011.3637-1.4962.3637-2.3857Z" style="fill:#0ca49d; fill-rule:evenodd;"/><path d="m49.8682,116.6972c0,1.0851-.1721,2.0821-.5159,2.992-.3433.9031-.8286,1.6815-1.4556,2.3349-.6265.6539-1.3813,1.1628-2.2641,1.5264-.8761.3575-1.8462.5361-2.9111.5361s-2.0353-.1786-2.9115-.5361c-.8759-.3636-1.6274-.8725-2.2538-1.5264-.6268-.6534-1.1121-1.4318-1.4556-2.3349-.3439-.9099-.5159-1.9069-.5159-2.992s.172-2.0786.5159-2.982c.3435-.9099.8288-1.6912,1.4556-2.3451.6264-.6602,1.3779-1.1722,2.2538-1.5364.8762-.3637,1.8465-.5457,2.9115-.5457s2.035.182,2.9111.5457c.8828.3642,1.6376.8762,2.2641,1.5364.627.6539,1.1123,1.4352,1.4556,2.3451.3438.9034.5159,1.8972.5159,2.982h0Zm-2.0118,0c0-.8895-.121-1.688-.3637-2.3955-.2426-.7076-.5864-1.3043-1.0312-1.7893-.445-.4918-.9839-.8691-1.6175-1.1318-.6335-.2634-1.341-.3943-2.1225-.3943-.775,0-1.4792.1309-2.1127.3943-.6333.2627-1.1761.64-1.6274,1.1318-.4447.485-.7886,1.0817-1.0312,1.7893-.2427.7075-.3637,1.506-.3637,2.3955s.121,1.6883.3637,2.3959c.2426.7004.5865,1.2971,1.0312,1.7889.4513.485.9941.8595,1.6274,1.1222.6335.256,1.3377.3841,2.1127.3841.7815,0,1.489-.1281,2.1225-.3841.6336-.2627,1.1725-.6372,1.6175-1.1222.4448-.4918.7886-1.0885,1.0312-1.7889.2427-.7076.3637-1.5064.3637-2.3959Z" style="fill:#0ca49d; fill-rule:evenodd;"/><path d="m64.4093,109.4493v14.4853h-.9805c-.155,0-.2865-.0266-.394-.0805-.1012-.0541-.2021-.1454-.3036-.2729l-8.3798-10.9171c.0139.1684.0239.3333.0307.4952.0068.1621.0099.3132.0099.455v10.3203h-1.7184v-14.4853h1.0109c.0875,0,.1618.0071.2222.0207.0607.0068.1145.0233.1621.0505.0468.0201.0941.0538.1415.1009.047.0405.0975.0944.1514.1618l8.3797,10.9066c-.0133-.1749-.0266-.3435-.0405-.5054-.0065-.1684-.0099-.3268-.0099-.4751v-10.26h1.7183Z" style="fill:#0ca49d; fill-rule:evenodd;"/><polygon points="77.0485 122.3376 77.0385 123.9346 68.1125 123.9346 68.1125 109.4493 77.0385 109.4493 77.0385 111.0466 70.0735 111.0466 70.0735 115.8582 75.7139 115.8582 75.7139 117.3948 70.0735 117.3948 70.0735 122.3376 77.0485 122.3376" style="fill:#0ca49d; fill-rule:evenodd;"/><path d="m87.19,111.7139c-.0607.1009-.1282.1786-.2024.2325-.0669.047-.1511.0708-.2526.0708-.1145,0-.2492-.0572-.4045-.172-.1548-.1146-.3501-.239-.5859-.3739-.2291-.1415-.5091-.2696-.8391-.3841-.3234-.1145-.718-.1715-1.1829-.1715-.4379,0-.8251.0604-1.1622.1814-.3302.1145-.61.273-.839.4751-.2223.2024-.3909.4413-.5054.7177-.1146.2699-.1718.563-.1718.8796,0,.4045.0978.7415.2928,1.0108.2024.2628.4652.4887.7889.6772.3299.1888.7004.3541,1.1114.4952.4181.1347.8428.2764,1.2739.4247.438.1482.8626.3166,1.2736.5054.4181.182.7883.4144,1.1121.6976.3299.2829.593.6299.7883,1.0409.2021.411.303.9164.303,1.5165,0,.6336-.1074,1.2297-.3231,1.789-.216.5527-.5327,1.0343-.9502,1.4453-.411.4111-.9199.7348-1.5262.9706-.6001.2359-1.2841.3541-2.0523.3541-.9436,0-1.7994-.1687-2.5676-.5054-.7679-.3442-1.425-.8056-1.9709-1.385l.5661-.9301c.0538-.074.1179-.1346.1919-.182.0807-.0541.1686-.0808.2627-.0808.0879,0,.1857.0369.2931.1109.1151.0677.2427.1553.3844.263s.3033.2257.4853.3541c.182.1278.3872.246.6165.3535.2359.1077.5021.1989.7986.2726.2965.0678.6298.1015,1.0006.1015.4649,0,.8796-.064,1.2433-.1922.3639-.1281.6706-.3067.9198-.5354.2563-.2362.4518-.5157.5865-.8394.1346-.3234.2024-.684.2024-1.0814,0-.4382-.1015-.7951-.3036-1.0715-.1953-.2832-.455-.5187-.7784-.7075-.3231-.1888-.6939-.3473-1.112-.4754-.4176-.1346-.8422-.2693-1.2734-.4039-.4314-.1417-.856-.3036-1.2736-.4853-.4181-.182-.7888-.4178-1.112-.7075-.3234-.29-.5862-.6506-.7883-1.0817-.1956-.438-.2934-.9769-.2934-1.6175,0-.5119.0978-1.0071.2934-1.4859.2021-.4782.4918-.9028.8691-1.2733.3841-.3708.8527-.6673,1.4048-.8898.5596-.2225,1.2-.3334,1.9208-.3334.8087,0,1.5432.1281,2.2039.3838.6667.2563,1.2532.6268,1.7587,1.1121l-.4751.93Z" style="fill:#0ca49d; fill-rule:evenodd;"/><rect x="90.7574" y="109.4493" width="1.9613" height="14.4853" style="fill:#0ca49d;"/><path d="m104.1162,118.5573l-2.2745-5.8932c-.0672-.1755-.1381-.3773-.2123-.6066-.0743-.2356-.1449-.4853-.2123-.7481-.1415.5457-.2861,1.0006-.4343,1.3649l-2.2745,5.883h5.4079Zm4.0836,5.3773h-1.516c-.1754,0-.3166-.0439-.4246-.1315-.108-.0873-.1888-.1987-.2427-.3333l-1.3546-3.4977h-6.4993l-1.3547,3.4977c-.0405.1216-.1179.229-.2327.3231-.1142.095-.256.1417-.4244.1417h-1.5162l5.792-14.4853h1.9814l5.7918,14.4853Z" style="fill:#0ca49d; fill-rule:evenodd;"/></g></svg>