<?xml version="1.0" encoding="UTF-8"?><svg id="a" xmlns="http://www.w3.org/2000/svg" viewBox="0 0 484.7733 392.2842"><path d="m484.7733,176.1012c-32.3182,31.5014-57.1464,68.9208-73.6291,109.5614h-21.6225c13.1769-34.8766,32.0871-67.6572,56.2371-96.8853-84.0705-21.6379-156.8135-74.4922-203.3721-147.7592-46.5586,73.267-119.3016,126.1212-203.3721,147.7592,24.1577,29.2282,43.0601,62.0088,56.2371,96.8853h-21.6225C57.1464,245.022,32.3182,207.6026,0,176.1012,104.8531,160.8668,195.4967,95.0128,242.3867,0c23.4411,47.5064,57.8245,87.7231,99.4591,117.9685,41.6269,30.2454,90.5049,50.5117,142.9276,58.1327Z" style="fill:#057a55;"/><path d="m415.0125,285.6626l-2.2578,1.1867-2.6277,1.3793-19.5034,10.2411-6.8196,3.5832-141.4019,74.2225v.0154l-.0154-.0077-.0154.0077v-.0154l-141.3864-74.2148-6.8351-3.5909-19.5034-10.2411-2.6277-1.3793-2.2578-1.1867h69.1444s-.4932,3.9222,11.5202,11.3507c3.9993,2.4659,8.3531,4.3152,12.8996,5.5173,73.7678,19.5343,78.7689,52.6616,79.0617,55.4434.2928-2.7818,5.2939-35.9091,79.0617-55.4434,4.5465-1.2021,8.9003-3.0515,12.8996-5.5173,12.0134-7.4284,11.5202-11.3507,11.5202-11.3507h69.1444Z" style="fill:#057a55;"/><polygon points="419.9751 290.8447 419.9751 299.5369 242.3867 392.2842 64.7982 299.5369 64.7982 290.8447 242.3867 383.5921 419.9751 290.8447" style="fill:#057a55;"/><path d="m143.4505,215.5389s-7.2858,6.3751,25.0449,29.5985,23.4945,39.6164,13.6608,49.6343c0,0-6.8304-13.6608-27.777-30.9645-20.9466-17.3037-28.6877-25.0449-10.9287-48.2683Z" style="fill:#057a55;"/><path d="m160.8201,197.7798s-4.9824,4.3596,17.127,20.241c22.1094,15.8814,16.0667,27.0918,9.342,33.9426,0,0-4.671-9.342-18.9954-21.1752-14.3244-11.8332-19.6182-17.127-7.4736-33.0084Z" style="fill:#057a55;"/><path d="m341.3228,215.5389s7.2858,6.3751-25.0449,29.5985c-32.3306,23.2234-23.4945,39.6164-13.6608,49.6343,0,0,6.8304-13.6608,27.777-30.9645,20.9466-17.3037,28.6877-25.0449,10.9287-48.2683Z" style="fill:#057a55;"/><path d="m323.9532,197.7798s4.9824,4.3596-17.127,20.241c-22.1094,15.8814-16.0667,27.0918-9.342,33.9426,0,0,4.671-9.342,18.9954-21.1752,14.3244-11.8332,19.6182-17.127,7.4736-33.0084Z" style="fill:#057a55;"/><path d="m242.4616,140.8597l36.2494,31.4199s21.402,11.384,2.7322,29.1431c-18.6698,17.7591-17.3037,14.1162-5.009,35.0628,0,0-.615-12.7501,19.9561-27.3217,20.5711-14.5715,11.7596-29.1431-5.009-44.6254-16.7685-15.4823-48.7402-39.161-48.9197-44.6254h-.1498c-.1795,5.4643-32.1512,29.1431-48.9197,44.6254-16.7685,15.4823-25.58,30.0538-5.009,44.6254,20.5711,14.5715,19.9561,27.3217,19.9561,27.3217,12.2947-20.9466,13.6609-17.3037-5.009-35.0628-18.6698-17.7591,2.7322-29.1431,2.7322-29.1431l36.2494-31.4199" style="fill:#057a55;"/><path d="m242.3867,246.8826h0c6.2699,12.7042,18.3896,21.5097,32.4095,23.5469h0s0,0,0,0c-10.1449,9.8888-14.7742,24.1364-12.3793,38.0996h0s0,0,0,0c-12.5398-6.5925-27.5206-6.5925-40.0603,0h0s0,0,0,0c2.3949-13.9632-2.2344-28.2108-12.3793-38.0996h0s0,0,0,0c14.0199-2.0372,26.1396-10.8427,32.4095-23.5469h0Z" style="fill:#057a55; fill-rule:evenodd;"/></svg>