<?xml version="1.0" encoding="UTF-8"?><svg id="b" xmlns="http://www.w3.org/2000/svg" viewBox="0 0 150 181.5104"><g id="c"><path d="m49.4294,2.4937c-.0535-.8437-.15-1.6743-.2763-2.4937,5.431,5.6037,13.1878,8.8886,21.588,8.358,4.0174-.255,7.7759-1.3607,11.1204-3.1237-2.5979,4.5312-3.9451,9.846-3.5904,15.4475.4387,6.934,3.4072,13.1021,7.9428,17.6782-2.32-.4675-4.7375-.6473-7.2115-.4894-9.8285.6203-18.1233,6.3097-22.516,14.3568-1.7353-11.8947-10.9643-21.1413-22.5049-23.1759,9.7506-4.764,16.1755-15.059,15.4479-26.5578Z" style="fill:#363636; fill-rule:evenodd;"/><path d="m24.3323,28.3162v7.2746H0v-7.2746c0-1.4424,1.1706-2.613,2.613-2.613h19.1063c1.4424,0,2.613,1.1706,2.613,2.613Z" style="fill:#363636;"/><rect y="40.8168" width="24.3323" height="2.3517" style="fill:#363636;"/><rect y="45.7815" width="24.3323" height="115.2335" style="fill:#363636;"/><rect y="163.628" width="24.3323" height="2.3517" style="fill:#363636;"/><path d="m24.3323,171.2057v7.2798c0,1.4424-1.1706,2.613-2.613,2.613H2.613c-1.4424,0-2.613-1.1706-2.613-2.613v-7.2798h24.3323Z" style="fill:#363636;"/><path d="m27.4501,64.2492v2.3517h22.66v-2.3517h-22.66Zm16.0229-22.0224c-4.1024-4.1024-9.7674-6.637-16.0229-6.637v23.4334h22.66v-.7682c0-6.2608-2.5346-11.9258-6.637-16.0282Zm-16.0229,26.9871v109.2707c0,1.4424,1.1654,2.613,2.613,2.613h17.434c1.4424,0,2.613-1.1706,2.613-2.613v-109.2707h-22.66Zm16.556,88.3875h-10.452v-75.3225h10.452v75.3225Z" style="fill:#363636;"/><path d="m150,180.2039c0,.3606-.1463.6846-.3815.925-.2404.2352-.5644.3815-.925.3815H57.8602c-2.8847,0-5.226-2.3412-5.226-5.226v-10.452c0-2.89,2.3413-5.226,5.226-5.226h90.8333c.7212,0,1.3065.5853,1.3065,1.3065,0,.3606-.1463.6846-.3815.925-.2404.2352-.5644.3815-.925.3815H58.017c-1.4424,0-2.613,1.1706-2.613,2.613v10.452c0,1.4424,1.1706,2.613,2.613,2.613h90.6765c.7212,0,1.3065.5853,1.3065,1.3065Z" style="fill:#363636;"/><path d="m148.6935,165.3098v2.613H58.017v-1.3065c0-.7212.5853-1.3065,1.3065-1.3065h89.37Z" style="fill:#363636;"/><rect x="58.017" y="169.7519" width="90.6765" height="2.613" style="fill:#363636;"/><path d="m58.017,174.194h90.6765v2.613H59.3235c-.7212,0-1.3065-.5853-1.3065-1.3065v-1.3065Z" style="fill:#363636;"/><path d="m150,166.6163c0,.3606-.1463.6846-.3815.925-.2404.2352-.5644.3815-.925.3815H58.017v-1.3065c0-.7212.5853-1.3065,1.3065-1.3065h89.37c.7212,0,1.3065.5853,1.3065,1.3065Z" style="fill:#363636;"/><path d="m150,171.0584c0,.3606-.1463.6846-.3815.925-.2404.2352-.5644.3815-.925.3815H58.017v-2.613h90.6765c.7212,0,1.3065.5853,1.3065,1.3065Z" style="fill:#363636;"/><path d="m150,175.5005c0,.3606-.1463.6846-.3815.925-.2404.2352-.5644.3815-.925.3815H59.3235c-.7212,0-1.3065-.5853-1.3065-1.3065v-1.3065h90.6765c.7212,0,1.3065.5853,1.3065,1.3065Z" style="fill:#363636;"/><path d="m136.2974,157.2251c0,.3606-.1463.6898-.3815.925-.2404.2352-.5644.3815-.925.3815h-70.3369c-2.8847,0-5.226-2.3413-5.226-5.226v-6.0204c0-2.89,2.3413-5.226,5.226-5.226h70.3369c.7212,0,1.3065.5801,1.3065,1.3065,0,.3606-.1463.6898-.3815.925-.2299.2247-.5435.371-.8884.3815h-70.2167c-1.4424,0-2.613,1.1654-2.613,2.613v6.0204c0,1.4424,1.1706,2.613,2.613,2.613h70.2167c.7055.0209,1.2699.5957,1.2699,1.3065Z" style="fill:#363636;"/><path d="m135.0275,146.7731v2.613h-70.2167v-1.3065c0-.7212.5853-1.3065,1.3065-1.3065h68.9102Z" style="fill:#363636;"/><path d="m135.0275,151.2152v2.613h-68.9102c-.7212,0-1.3065-.5853-1.3065-1.3065v-1.3065h70.2167Z" style="fill:#363636;"/><path d="m136.2974,148.0796c0,.3606-.1463.6898-.3815.925-.2299.2247-.5435.3711-.8884.3815h-70.2167v-1.3065c0-.7212.5853-1.3065,1.3065-1.3065h68.9102c.7055.0209,1.2699.5957,1.2699,1.3065Z" style="fill:#363636;"/><path d="m136.2974,152.5217c0,.3606-.1463.6898-.3815.925-.2299.2247-.5435.3711-.8884.3815h-68.9102c-.7212,0-1.3065-.5853-1.3065-1.3065v-1.3065h70.2167c.7055.0209,1.2699.5957,1.2699,1.3065Z" style="fill:#363636;"/></g></svg>