<?xml version="1.0" encoding="UTF-8"?><svg id="b" xmlns="http://www.w3.org/2000/svg" viewBox="0 0 116.9079 72.2325"><g id="c"><path d="m84.8772,19.9568v51.8921h12.2023v-38.8902c0-2.9046-1.55-11.6793-12.2023-13.0019Z" style="fill:#fff; fill-rule:evenodd;"/><path d="m20.0166,62.8186c1.5519,0,2.8202-.1967,3.8058-.5902.9842-.394,1.7549-.9034,2.3119-1.5287.5553-.625.9371-1.3317,1.146-2.1192.2084-.7863.3124-1.5854.3124-2.3961,0-.9261-.1213-1.7597-.3651-2.5016-.2423-.741-.6599-1.3654-1.2512-1.8754-.5899-.5094-1.3722-.9034-2.3454-1.1812-.9731-.2775-2.2011-.4169-3.6844-.4169h-8.2007v12.6093h8.2707ZM11.7459,29.8539v12.5051h6.1163c1.2969,0,2.4676-.0921,3.5102-.2778,1.0417-.1857,1.9287-.5091,2.658-.9731.7294-.4627,1.2861-1.099,1.6682-1.91.3818-.8105.5737-1.8292.5737-3.0566,0-1.2042-.151-2.206-.4518-3.0048-.3016-.799-.7651-1.4414-1.3904-1.9281-.6253-.4864-1.4193-.8336-2.38-1.0423-.9615-.2083-2.1035-.3124-3.4231-.3124h-6.8811Zm6.8811-8.7885c3.498,0,6.4755.3249,8.9311.9726,2.4551.6491,4.4601,1.5633,6.0126,2.7445,1.5514,1.1809,2.6805,2.6169,3.388,4.3069.7061,1.6909,1.0599,3.5782,1.0599,5.6625,0,1.1345-.1625,2.2292-.4856,3.2825-.3252,1.0543-.8354,2.0379-1.5302,2.9523-.6953.9153-1.5871,1.7544-2.6759,2.5189-1.0896.7639-2.3975,1.4244-3.9265,1.9791,3.3352.811,5.8031,2.1192,7.4015,3.9257,1.5985,1.8063,2.3987,4.1457,2.3987,7.0166,0,2.1535-.4173,4.1576-1.2518,6.0098-.8336,1.853-2.0565,3.4682-3.6666,4.8455-1.6098,1.3779-3.5966,2.4548-5.9601,3.2307-2.3621.7764-5.0618,1.1636-8.0963,1.1636H0V21.0654h18.627Z" style="fill:#fff; fill-rule:evenodd;"/><path d="m74.5084,31.3475c-.3478.5562-.7118.9726-1.095,1.2507-.3819.2778-.874.4167-1.4763.4167-.5329,0-1.1064-.1681-1.7204-.5038-.6137-.3356-1.3093-.7117-2.0849-1.1287-.7761-.4167-1.6628-.7934-2.6589-1.1291-.9955-.3359-2.131-.5034-3.4061-.5034-2.2008,0-3.8401.4689-4.9172,1.4068-1.0769.9375-1.6161,2.2057-1.6161,3.8036,0,1.0193.3249,1.8643.9732,2.5353.6483.6721,1.5004,1.2512,2.5551,1.7373,1.0537.4859,2.259.9324,3.6139,1.3374,1.3553.4057,2.7391.8569,4.1525,1.3544,1.4133.4986,2.7986,1.0831,4.153,1.7541,1.3556.6718,2.5606,1.5287,3.6145,2.5707,1.0542,1.0423,1.9054,2.31,2.554,3.8036.6483,1.4935.9731,3.2944.9731,5.4014,0,2.3397-.4048,4.528-1.2157,6.565-.8116,2.0381-1.9877,3.8157-3.5278,5.3326-1.5414,1.5171-3.4407,2.709-5.6987,3.5773-2.2595.8691-4.8257,1.3031-7.6984,1.3031-1.5752,0-3.1802-.1625-4.8129-.4859-1.6336-.3246-3.2145-.7824-4.7435-1.3731-1.5296-.5902-2.9662-1.2906-4.3095-2.1008-1.3451-.8107-2.5143-1.7138-3.5104-2.7102l3.475-5.4878c.2789-.3943.6429-.7237,1.0947-.9899.4518-.2664.9439-.3994,1.478-.3994.6939,0,1.3941.2197,2.1022.6596.7063.4403,1.5057.9264,2.3978,1.4593.8918.5329,1.9168,1.0188,3.0753,1.459,1.1579.4397,2.5254.6599,4.1011.6599,2.1311,0,3.7883-.4694,4.9698-1.4068,1.1809-.938,1.7716-2.4259,1.7716-4.4637,0-1.1815-.3248-2.1416-.9726-2.8834-.6485-.7407-1.5009-1.3547-2.554-1.8414-1.0559-.4859-2.2544-.9145-3.5977-1.2847-1.3433-.3699-2.7224-.7812-4.1349-1.2336-1.4139-.4513-2.7924-1.0069-4.1358-1.6668-1.3444-.6602-2.5435-1.5284-3.596-2.605-1.0553-1.0772-1.9071-2.4203-2.5554-4.0298-.648-1.6095-.9729-3.5952-.9729-5.9573,0-1.8983.3819-3.7513,1.1469-5.5581.7651-1.8063,1.8879-3.4155,3.3707-4.828,1.4831-1.4119,3.3024-2.5416,5.4561-3.3874,2.1546-.845,4.6222-1.2677,7.4027-1.2677,1.552,0,3.0637.1219,4.5354.3654,1.4704.2427,2.867.6021,4.1877,1.0766,1.3209.4748,2.5537,1.0423,3.7009,1.7019,1.1469.6605,2.1716,1.4069,3.075,2.2405l-2.9191,5.4536Z" style="fill:#fff; fill-rule:evenodd;"/><path d="m98.4175,1.2535c-.0269-.4241-.0754-.8416-.1389-1.2535,2.73,2.8168,6.6291,4.468,10.8516,4.2013,2.0194-.1282,3.9087-.684,5.5899-1.5702-1.3059,2.2777-1.9831,4.9493-1.8048,7.765.2205,3.4855,1.7127,6.586,3.9926,8.8863-1.1662-.235-2.3814-.3254-3.625-.246-4.9405.3118-9.11,3.1717-11.3181,7.2167-.8723-5.9791-5.5114-10.6271-11.3125-11.6498,4.9013-2.3947,8.1309-7.5697,7.7652-13.3498Z" style="fill:#f9ad3c; fill-rule:evenodd;"/></g></svg>