<?xml version="1.0" encoding="UTF-8"?><svg id="b" xmlns="http://www.w3.org/2000/svg" viewBox="0 0 244.1831 68.3528"><g id="c"><path d="m79.7829,19.6531h-.0823v.0076c.0279-.0025.051-.0046.0823-.0076Z" style="fill:#1d1d1d; fill-rule:evenodd;"/><path d="m80.3183,18.8849v49.1049h11.5469V31.1884c0-2.7486-1.4667-11.052-11.5469-12.3035Z" style="fill:#1d1d1d; fill-rule:evenodd;"/><path d="m18.9415,59.4445c1.4685,0,2.6687-.1861,3.6014-.5585.9313-.3728,1.6606-.8549,2.1877-1.4466.5255-.5914.8868-1.2602,1.0844-2.0054.1972-.7441.2956-1.5002.2956-2.2674,0-.8764-.1148-1.6652-.3455-2.3672-.2293-.7012-.6245-1.2921-1.184-1.7747-.5582-.482-1.2985-.8549-2.2194-1.1178-.9208-.2626-2.0829-.3945-3.4865-.3945h-7.7602v11.932h7.8265Zm-7.8265-31.1941v11.8334h5.7878c1.2272,0,2.3351-.0872,3.3217-.2629.9857-.1757,1.8251-.4818,2.5152-.9208.6902-.4378,1.217-1.04,1.5786-1.8074.3613-.767.5429-1.731.5429-2.8924,0-1.1395-.1429-2.0875-.4275-2.8434-.2854-.7561-.724-1.364-1.3157-1.8245-.5917-.4603-1.3431-.7888-2.2522-.9863-.9099-.1971-1.9905-.2956-3.2392-.2956h-6.5115Zm6.5115-8.3165c3.3101,0,6.1277.3074,8.4514.9204,2.3232.6142,4.2205,1.4793,5.6897,2.5971,1.4681,1.1175,2.5365,2.4763,3.206,4.0756.6682,1.6001,1.003,3.386,1.003,5.3584,0,1.0736-.1538,2.1095-.4595,3.1062-.3077.9977-.7905,1.9284-1.448,2.7937-.658.8661-1.5019,1.6602-2.5322,2.3836-1.0311.7229-2.2687,1.3479-3.7156,1.8728,3.1561.7674,5.4914,2.0054,7.004,3.7148,1.5126,1.7093,2.2699,3.923,2.2699,6.6397,0,2.0378-.3949,3.9343-1.1846,5.687-.7888,1.7535-1.946,3.2819-3.4697,4.5852-1.5233,1.3039-3.4034,2.3229-5.64,3.0572-2.2352.7347-4.7899,1.1011-7.6614,1.1011H0V19.9339h17.6265Z" style="fill:#1d1d1d; fill-rule:evenodd;"/><path d="m70.5064,29.6638c-.3291.5263-.6736.9204-1.0362,1.1835-.3614.2629-.8271.3943-1.397.3943-.5043,0-1.047-.1591-1.628-.4767-.5807-.3176-1.239-.6735-1.9729-1.0681-.7344-.3943-1.5735-.7508-2.5161-1.0685-.942-.3179-2.0165-.4764-3.2232-.4764-2.0826,0-3.6338.4437-4.6531,1.3312-1.0191.8871-1.5293,2.0872-1.5293,3.5993,0,.9646.3074,1.7642.9209,2.3991.6135.636,1.4198,1.184,2.4179,1.644.9971.4598,2.1377.8823,3.4198,1.2656,1.2825.3839,2.592.8109,3.9295,1.2817,1.3374.4718,2.6483,1.0249,3.9299,1.6599,1.2828.6357,2.4231,1.4466,3.4204,2.4326.9976.9863,1.8031,2.1859,2.4168,3.5993.6135,1.4133.9208,3.1175.9208,5.1113,0,2.214-.3831,4.2848-1.1504,6.2124-.768,1.9286-1.8809,3.6108-3.3383,5.0462-1.4586,1.4356-3.2559,2.5635-5.3926,3.3852-2.1381.8224-4.5665,1.2331-7.2849,1.2331-1.4906,0-3.0094-.1538-4.5544-.4598-1.5459-.3072-3.0418-.7404-4.4887-1.2993-1.4474-.5585-2.8069-1.2213-4.078-1.988-1.2729-.7672-2.3793-1.6217-3.3219-2.5646l3.2884-5.193c.2639-.3731.6084-.6848,1.0359-.9367.4275-.2521.8932-.3779,1.3986-.3779.6566,0,1.3192.2079,1.9893.6242.6684.4167,1.4248.8766,2.269,1.3809.8439.5043,1.8138.9641,2.9101,1.3806,1.0957.4161,2.3898.6245,3.8808.6245,2.0166,0,3.5848-.4442,4.7029-1.3312,1.1175-.8876,1.6764-2.2956,1.6764-4.2239,0-1.118-.3074-2.0266-.9204-2.7285-.6137-.7009-1.4203-1.2819-2.4168-1.7425-.9992-.4598-2.1333-.8654-3.4045-1.2157-1.2711-.35-2.5762-.7392-3.9128-1.1673-1.338-.4271-2.6424-.9528-3.9137-1.5773-1.2722-.6247-2.4069-1.4463-3.4029-2.4651-.9986-1.0193-1.8047-2.2903-2.4181-3.8134-.6132-1.5231-.9206-3.4021-.9206-5.6373,0-1.7963.3614-3.5498,1.0853-5.2596.724-1.7093,1.7865-3.232,3.1897-4.5687,1.4034-1.3361,3.125-2.4051,5.163-3.2055,2.0389-.7996,4.3739-1.1996,7.0051-1.1996,1.4686,0,2.8991.1154,4.2918.3458,1.3914.2297,2.713.5698,3.9628,1.0188,1.25.4493,2.4165.9863,3.5021,1.6105,1.0853.625,2.055,1.3313,2.9098,2.1202l-2.7623,5.1607Z" style="fill:#1d1d1d; fill-rule:evenodd;"/><path d="m93.1313,1.1862c-.0255-.4013-.0714-.7964-.1314-1.1862,2.5834,2.6655,6.273,4.228,10.2687,3.9756,1.9109-.1213,3.6988-.6473,5.2897-1.4859-1.2358,2.1554-1.8766,4.6835-1.7079,7.3479.2087,3.2983,1.6207,6.2323,3.7782,8.409-1.1036-.2224-2.2535-.3079-3.4303-.2328-4.6751.2951-8.6207,3.0013-10.7102,6.8291-.8254-5.658-5.2154-10.0563-10.7049-11.0241,4.638-2.2661,7.6942-7.1631,7.3481-12.6328Z" style="fill:#1d1d1d; fill-rule:evenodd;"/><path d="m113.7083,48.2048c.5413,0,1.0081-.0618,1.3994-.1858.3914-.1243.711-.2969.959-.5187.2544-.2283.4405-.4958.5576-.8026.1178-.3129.1762-.6553.1762-1.0274,0-.7239-.2576-1.2947-.773-1.712-.5153-.4243-1.2881-.6361-2.3192-.6361h-3.0333v4.8825h3.0333Zm-3.0333-11.0182v4.7851h2.505c.5351,0,.9981-.0585,1.3896-.1762.3979-.1171.7238-.2802.9782-.4892.2613-.2088.4536-.4599.5776-.7532.124-.3002.1861-.6265.1861-.9786,0-.8284-.2481-1.4318-.7442-1.8102-.4953-.385-1.2652-.5776-2.3091-.5776h-2.5832Zm2.5832-1.4969c.8611,0,1.6017.0845,2.2213.2544.6265.1693,1.1385.411,1.5365.7242.4042.3128.7011.6981.8904,1.1544.1891.4503.2837.959.2837,1.5268,0,.3455-.0555.678-.1666.9981-.1043.3131-.264.6067-.4794.8805-.2151.2739-.4892.5222-.8221.7436-.326.2154-.7107.3916-1.1548.5285,1.0313.1956,1.8039.5642,2.3196,1.1056.5216.5351.7826,1.2398.7826,2.1135,0,.5938-.1108,1.1351-.3328,1.6245-.2149.4892-.5346.9099-.9588,1.2625-.4176.3521-.9327.6259-1.546.8216-.6131.1896-1.3111.2837-2.0943.2837h-4.951v-14.0219h4.4717Z" style="fill:#1d1d1d; fill-rule:evenodd;"/><path d="m128.694,44.5061l-2.2018-5.705c-.0651-.1693-.1339-.3652-.2055-.5869-.0719-.2283-.1402-.4695-.2052-.7239-.1373.5283-.2774.9686-.4207,1.3207l-2.2021,5.6951h5.2354Zm3.9531,5.2054h-1.4675c-.1699,0-.3069-.042-.4114-.1268-.1043-.0851-.1825-.1926-.2346-.3232l-1.3114-3.3856h-6.2919l-1.3113,3.3856c-.039.1177-.1141.222-.2251.3134-.1108.0914-.248.1367-.411.1367h-1.4676l5.6067-14.0219h1.9181l5.6069,14.0219Z" style="fill:#1d1d1d; fill-rule:evenodd;"/><path d="m145.8527,35.6897v14.0219h-.9492c-.1501,0-.2774-.0258-.3817-.0779-.0977-.0525-.1959-.1403-.2936-.2643l-8.1117-10.5682c.0126.163.0225.323.0293.4794.0063.1567.0096.3038.0096.4405v9.9906h-1.6634v-14.0219h.9785c.0845,0,.1564.0063.2151.0195.0588.0064.1111.0231.1564.0489.0458.0195.0914.0522.1372.0977.0459.0395.0947.0917.1469.1567l8.112,10.5585c-.0132-.1698-.0263-.3331-.039-.4892-.0069-.1633-.0099-.3164-.0099-.4602v-9.9318h1.6635Z" style="fill:#1d1d1d; fill-rule:evenodd;"/><path d="m151.326,41.8344h.7145c.2475,0,.4468-.0293.5966-.0878.1503-.0652.287-.1728.411-.3226l4.6673-5.284c.1309-.1699.2676-.2873.4111-.3527.1435-.065.3199-.0977.5287-.0977h1.6041l-5.3423,6.0375c-.1307.1567-.258.287-.3815.3916-.1177.0977-.2447.1792-.3817.2445.1762.0585.3359.1466.4795.2643.1435.1108.2837.2576.4206.4401l5.5776,6.644h-1.6436c-.1241,0-.2317-.0063-.323-.0195-.0848-.0196-.1599-.0456-.225-.0782-.0653-.039-.1238-.0815-.1762-.1274-.0458-.0518-.0914-.1108-.1372-.1759l-4.8339-5.5677c-.1304-.1629-.2706-.2773-.4207-.3427-.1501-.0716-.3784-.1075-.6849-.1075h-.8611v6.4189h-1.8887v-14.0219h1.8887v6.1447Z" style="fill:#1d1d1d; fill-rule:evenodd;"/><path d="m174.5749,37.8814c-.0585.0982-.1237.1728-.1956.225-.0651.0461-.1466.0688-.2445.0688-.1108,0-.2414-.0557-.3916-.1665-.15-.1108-.3389-.2318-.5675-.3622-.2217-.1367-.4925-.2607-.8122-.3715-.3132-.1114-.6949-.1663-1.1446-.1663-.4242,0-.799.0585-1.1253.1759-.3196.1111-.5908.2643-.8125.4602-.2151.1954-.3781.427-.489.6945-.1111.261-.1666.5447-.1666.8512,0,.3916.0947.7176.2837.9789.1956.2543.45.4728.7634.6553.3196.183.6783.3427,1.0763.4794.4047.1306.8158.2676,1.2331.411.424.1436.8347.3065,1.2329.4892.4045.1762.7634.4013,1.0763.6753.3199.2739.5743.6104.7634,1.0079.1956.3979.2933.8871.2933,1.4678,0,.6133-.104,1.1903-.3128,1.7317-.2088.5351-.5154,1.0013-.9198,1.3995-.3979.3979-.8907.7109-1.4777.9396-.5806.228-1.2428.3421-1.9864.3421-.9134,0-1.7419-.1629-2.4855-.489-.7436-.3326-1.3797-.7799-1.9079-1.3407l.5477-.9004c.0521-.0718.1144-.1303.1861-.1761.0782-.0519.1629-.0782.2543-.0782.0848,0,.1795.0362.2837.1078.1111.0651.2352.15.3718.2544.1373.1045.2936.2181.4698.3421.1762.1241.3748.2385.5971.3428.2281.104.4858.1923.7728.2643.2873.065.61.0977.9686.0977.4503,0,.8515-.0621,1.2041-.1861.352-.1238.649-.2966.8901-.5187.2478-.228.4372-.4988.5675-.8119.1307-.3135.1959-.6624.1959-1.0471,0-.424-.0983-.7695-.2939-1.0371-.1891-.2743-.4399-.5024-.7532-.6849-.3131-.1828-.672-.3358-1.0765-.4599-.4044-.1306-.8156-.2612-1.2329-.3916-.4174-.1372-.8284-.2936-1.2326-.4698-.4048-.1761-.7637-.4042-1.0768-.6849-.3128-.2804-.5672-.6295-.7628-1.0468-.1896-.4242-.284-.9462-.284-1.5658,0-.4958.0944-.9752.284-1.4381.1956-.4635.4758-.8745.841-1.2332.3721-.3589.8257-.646,1.3603-.8614.5413-.2148,1.1616-.3226,1.859-.3226.7831,0,1.4942.124,2.1336.372.6459.2475,1.2134.6062,1.7027,1.076l-.4602.9004Z" style="fill:#1d1d1d; fill-rule:evenodd;"/><path d="m183.0063,44.1244v5.5871h-1.8983v-5.5871l-5.1371-8.4347h1.6634c.1696,0,.3033.0426.4015.1271.0977.0784.1825.1825.254.3134l3.2097,5.4503c.1174.2283.2251.4434.3227.6456.0983.1957.1828.3947.2544.5972.0718-.2025.1533-.4014.2447-.5972.0917-.2022.1926-.4173.3035-.6456l3.1999-5.4503c.0588-.1108.1402-.2124.2447-.3038.1044-.0911.2377-.1367.401-.1367h1.6734l-5.1375,8.4347Z" style="fill:#1d1d1d; fill-rule:evenodd;"/><path d="m196.0249,44.5061l-2.2018-5.705c-.0651-.1693-.1333-.3652-.2052-.5869-.0716-.2283-.1405-.4695-.2055-.7239-.137.5283-.2772.9686-.4207,1.3207l-2.2018,5.6951h5.2351Zm3.9534,5.2054h-1.4677c-.1699,0-.3066-.042-.4111-.1268-.1043-.0851-.1828-.1926-.2348-.3232l-1.3111-3.3856h-6.2919l-1.3113,3.3856c-.0393.1177-.1142.222-.2254.3134-.1106.0914-.2475.1367-.4107.1367h-1.4678l5.607-14.0219h1.9181l5.6069,14.0219Z" style="fill:#1d1d1d; fill-rule:evenodd;"/><path d="m205.7079,42.4804c.5476,0,1.0306-.0651,1.448-.1956.4239-.1369.7763-.3262,1.0567-.5675.287-.248.5022-.5414.6457-.8808.1438-.3392.2154-.714.2154-1.1253,0-.8347-.2739-1.4646-.8216-1.8885-.5485-.4242-1.3701-.6361-2.4661-.6361h-2.0745v5.2938h1.9964Zm6.4778,7.2312h-1.6835c-.3457,0-.6001-.1337-.7631-.401l-3.6402-5.0101c-.1106-.1566-.2314-.2675-.3617-.3325-.124-.0716-.3197-.1075-.5872-.1075h-1.4385v5.8511h-1.8885v-14.0219h3.963c.8872,0,1.6536.0914,2.2996.2739.6459.1765,1.1774.4336,1.5948.773.4239.3392.7373.7502.9396,1.2332.2019.4761.3032,1.0112.3032,1.6047,0,.4956-.0782.9588-.2349,1.3896-.1566.4303-.3847.8183-.6849,1.1643-.2936.3389-.6558.6295-1.0863.8708-.424.2417-.9067.4242-1.4481.5482.2415.1367.45.3359.6262.5966l4.0906,5.5677Z" style="fill:#1d1d1d; fill-rule:evenodd;"/><rect x="214.0929" y="35.6897" width="1.8983" height="14.0219" style="fill:#1d1d1d;"/><path d="m227.0245,44.5061l-2.2018-5.705c-.0651-.1693-.1336-.3652-.2052-.5869-.0716-.2283-.1406-.4695-.2055-.7239-.1373.5283-.2774.9686-.421,1.3207l-2.2018,5.6951h5.2354Zm3.9531,5.2054h-1.4677c-.1696,0-.3066-.042-.4108-.1268-.1045-.0851-.1828-.1926-.2348-.3232l-1.3114-3.3856h-6.2919l-1.3113,3.3856c-.039.1177-.1142.222-.2251.3134s-.248.1367-.411.1367h-1.4676l5.6067-14.0219h1.9181l5.6069,14.0219Z" style="fill:#1d1d1d; fill-rule:evenodd;"/><polygon points="244.1831 35.6897 244.1831 49.7116 242.2848 49.7116 242.2848 43.3319 234.7208 43.3319 234.7208 49.7116 232.8225 49.7116 232.8225 35.6897 234.7208 35.6897 234.7208 41.9423 242.2848 41.9423 242.2848 35.6897 244.1831 35.6897" style="fill:#1d1d1d; fill-rule:evenodd;"/><rect x="108.7865" y="54.1734" width="1.8983" height="14.0224" style="fill:#1d1d1d;"/><path d="m125.6322,54.1734v14.0224h-.9494c-.1499,0-.2772-.0257-.3812-.0779-.0983-.0524-.1959-.1408-.2939-.2642l-8.1119-10.5682c.0132.163.023.3226.0293.4794.0069.1569.0099.3032.0099.4405v9.9905h-1.6635v-14.0224h.9786c.0847,0,.1563.0069.2151.02.0585.0066.1108.0226.1567.0489.0455.0195.0913.0521.1366.0977.0461.0392.095.0914.1471.1566l8.1119,10.558c-.0129-.1693-.026-.3325-.0392-.4892-.0063-.163-.0096-.3164-.0096-.4599v-9.9321h1.6634Z" style="fill:#1d1d1d; fill-rule:evenodd;"/><path d="m141.3705,61.1897c0,1.0504-.1666,2.0057-.4992,2.867-.3328.8614-.8026,1.5983-1.4093,2.2117-.6065.613-1.3374,1.0891-2.1917,1.4285-.8481.3326-1.7874.4988-2.8181.4988h-5.2352v-14.0224h5.2352c1.0307,0,1.97.1699,2.8181.5093.8543.3326,1.5853.8087,2.1917,1.4285.6067.6134,1.0765,1.3504,1.4093,2.2115.3326.8611.4992,1.8168.4992,2.867h0Zm-1.9475,0c0-.8611-.1174-1.6311-.3521-2.3091-.2348-.6786-.5678-1.2529-.9982-1.7224-.4306-.4698-.9525-.8284-1.5655-1.076-.6133-.2483-1.2981-.3721-2.055-.3721h-3.3371v10.9493h3.3371c.7568,0,1.4417-.1234,2.055-.3715.6131-.248,1.1349-.6034,1.5655-1.0666.4305-.4698.7634-1.0438.9982-1.7221.2347-.6787.3521-1.4484.3521-2.3095Z" style="fill:#1d1d1d; fill-rule:evenodd;"/><path d="m157.061,61.1897c0,1.0504-.1666,2.0156-.4994,2.8964-.3323.8742-.8021,1.6278-1.4091,2.2603-.6065.633-1.3372,1.1256-2.1917,1.4776-.8481.3461-1.7872.519-2.8181.519s-1.9703-.1729-2.8185-.519c-.8479-.352-1.5754-.8446-2.1818-1.4776-.6068-.6325-1.0766-1.386-1.4091-2.2603-.3329-.8808-.4994-1.846-.4994-2.8964s.1665-2.0122.4994-2.8867c.3325-.8808.8023-1.6372,1.4091-2.2702.6064-.6391,1.3339-1.1347,2.1818-1.4873.8482-.3521,1.7875-.5283,2.8185-.5283s1.97.1762,2.8181.5283c.8546.3526,1.5853.8482,2.1917,1.4873.607.633,1.0768,1.3893,1.4091,2.2702.3328.8745.4994,1.8366.4994,2.8867h0Zm-1.9475,0c0-.8611-.1171-1.6341-.3521-2.3189-.2348-.685-.5677-1.2626-.9982-1.7321-.4308-.4761-.9525-.8413-1.5658-1.0956-.6133-.255-1.2981-.3817-2.0547-.3817-.7502,0-1.4319.1267-2.0452.3817-.6131.2543-1.1385.6195-1.5754,1.0956-.4305.4695-.7634,1.0471-.9982,1.7321-.2349.6849-.3521,1.4579-.3521,2.3189s.1171,1.6343.3521,2.3193c.2348.678.5678,1.2556.9982,1.7317.4369.4695.9623.832,1.5754,1.0863.6133.2478,1.2949.3718,2.0452.3718.7565,0,1.4414-.124,2.0547-.3718.6134-.2543,1.135-.6168,1.5658-1.0863.4306-.4761.7634-1.0537.9982-1.7317.2349-.685.3521-1.4583.3521-2.3193Z" style="fill:#1d1d1d; fill-rule:evenodd;"/><path d="m171.1374,54.1734v14.0224h-.9492c-.15,0-.2773-.0257-.3814-.0779-.098-.0524-.1956-.1408-.2939-.2642l-8.112-10.5682c.0135.163.0231.3226.0297.4794.0066.1569.0096.3032.0096.4405v9.9905h-1.6635v-14.0224h.9786c.0847,0,.1566.0069.2151.02.0588.0066.1108.0226.1569.0489.0453.0195.0911.0521.137.0977.0455.0392.0944.0914.1466.1566l8.1119,10.558c-.0129-.1693-.0257-.3325-.0392-.4892-.0063-.163-.0096-.3164-.0096-.4599v-9.9321h1.6634Z" style="fill:#1d1d1d; fill-rule:evenodd;"/><polygon points="183.3727 66.6498 183.363 68.1958 174.7223 68.1958 174.7223 54.1734 183.363 54.1734 183.363 55.7196 176.6206 55.7196 176.6206 60.3775 182.0807 60.3775 182.0807 61.865 176.6206 61.865 176.6206 66.6498 183.3727 66.6498" style="fill:#1d1d1d; fill-rule:evenodd;"/><path d="m193.1901,56.3656c-.0588.0977-.1241.1729-.1959.2251-.0648.0455-.1463.0685-.2445.0685-.1108,0-.2412-.0554-.3916-.1665-.1499-.1109-.3389-.2314-.5672-.362-.2218-.137-.4928-.261-.8123-.3718-.3131-.1108-.6951-.166-1.1451-.166-.4239,0-.7987.0585-1.1251.1756-.3196.1108-.5905.2643-.8122.4599-.2152.1959-.3784.4272-.4892.6948-.1109.2613-.1663.545-.1663.8515,0,.3916.0947.7178.2834.9785.1959.2544.4503.4731.7637.6556.3194.1828.678.3428,1.0759.4794.4047.1304.8159.2676,1.2332.4111.424.1435.835.3065,1.2329.4892.4047.1762.7631.4012,1.0766.6753.3194.2739.574.6098.7631,1.0076.1956.3979.2933.8871.2933,1.468,0,.6134-.104,1.1904-.3128,1.7318-.2091.535-.5157,1.0012-.9198,1.3991-.3979.398-.8905.7113-1.4774.9396-.5809.2284-1.2431.3428-1.9867.3428-.9134,0-1.7419-.1633-2.4855-.4892-.7434-.3332-1.3795-.7799-1.9079-1.3407l.548-.9004c.0521-.0716.1141-.1303.1858-.1762.0781-.0524.1632-.0782.2543-.0782.0851,0,.1798.0357.2837.1074.1114.0655.2349.1503.3721.2546s.2936.2185.4698.3428c.1762.1237.3748.2381.5968.3422.2284.1043.4861.1925.7731.2639.287.0656.6097.0983.9686.0983.45,0,.8515-.062,1.2036-.1861.3523-.124.6492-.2969.8904-.5183.2481-.2287.4374-.4992.5678-.8126.1303-.3131.1959-.6621.1959-1.0468,0-.4242-.0983-.7697-.2939-1.0373-.1891-.2741-.4405-.5021-.7535-.6849-.3128-.1828-.6717-.3362-1.0765-.4602-.4043-.1303-.8153-.2607-1.2327-.391-.4176-.1372-.8286-.2939-1.2329-.4698-.4047-.1762-.7636-.4044-1.0765-.6849-.3131-.2807-.5675-.6298-.7631-1.0471-.1893-.424-.284-.9457-.284-1.5658,0-.4955.0947-.9749.284-1.4384.1956-.4629.4761-.8739.8413-1.2326.3718-.3589.8254-.646,1.3599-.8614.5417-.2154,1.1616-.3227,1.8594-.3227.7829,0,1.4939.124,2.1335.3715.6454.2481,1.2131.6068,1.7025,1.0766l-.4599.9003Z" style="fill:#1d1d1d; fill-rule:evenodd;"/><rect x="196.6435" y="54.1734" width="1.8986" height="14.0224" style="fill:#1d1d1d;"/><path d="m209.5753,62.9903l-2.2018-5.7049c-.0651-.1699-.1337-.3652-.2055-.5872-.0719-.2281-.1403-.4698-.2055-.7242-.137.5283-.277.9686-.4204,1.3213l-2.2018,5.695h5.2351Zm3.9531,5.2054h-1.4676c-.1698,0-.3065-.0425-.411-.1273-.1045-.0845-.1828-.1923-.2349-.3226l-1.3113-3.3859h-6.2916l-1.3114,3.3859c-.0392.1177-.1141.2217-.2253.3128-.1106.092-.2478.1372-.4108.1372h-1.4677l5.6069-14.0224h1.9181l5.6067,14.0224Z" style="fill:#1d1d1d; fill-rule:evenodd;"/></g></svg>